<svg xmlns="http://www.w3.org/2000/svg" viewBox="0 0 64 64" fill="none">
  <rect width="64" height="64" rx="14" fill="#1a1a1e"/>
  <g transform="translate(8, 16)">
    <path d="M35.2 20.8c-.2-.8-1-1.3-1.8-1.3H12.3c-.2 0-.3.1-.4.2-.1.1-.1.3-.1.4l-.2.9c-.1.3 0 .6.2.8.2.2.4.3.7.3h20.3c.6 0 1.2.4 1.4 1l.2.4.3-.9.2-.8z" fill="#F6821F"/>
    <path d="M28.6 26.8c.2-.6.1-1.1-.2-1.5-.5-.7-1.4-1.1-2.5-1.1H8.4c-.2 0-.3.1-.4.2-.1.1-.1.3-.1.4l-.2.9c-.1.3 0 .6.2.8.2.2.4.3.7.3h16.7c.7 0 1.3.3 1.6.9.1.3.1.5 0 .8l.3-.7h1.4z" fill="#F6821F"/>
    <path d="M31.3 23.4c.1-.4.1-.7 0-1.1-.3-.8-1-1.3-1.9-1.3H12.3c-.2 0-.3.1-.4.2-.1.1-.1.3-.1.4l-.2.9c-.1.3 0 .6.2.8.2.2.4.3.7.3h16.8c.5 0 .9.3 1.2.7.1.2.1.5 0 .8l.3-.8h.5z" fill="#FBAD41"/>
  </g>
</svg>
