<svg xmlns="http://www.w3.org/2000/svg" viewBox="0 0 360 120" width="360" height="120">
  <g fill="none" stroke="#000000" stroke-width="2" stroke-linecap="round" stroke-linejoin="round">
    <!-- M -->
    <path d="M 25,90 C 25,90 23,40 26,25 C 29,15 31,80 34,85 C 37,90 39,35 44,25 C 49,15 50,80 54,85"/>
    <!-- á -->
    <path d="M 54,85 C 58,82 65,48 72,45 C 79,42 68,65 68,72 C 68,79 78,50 82,45"/>
    <!-- accent on á -->
    <path d="M 68,32 L 74,24"/>
    <!-- r -->
    <path d="M 82,45 C 82,45 80,70 82,78 C 84,82 90,52 94,48"/>
    <!-- t -->
    <path d="M 94,48 C 94,48 98,30 100,25 C 102,30 104,65 106,75 C 108,82 115,68 118,62"/>
    <!-- t crossbar -->
    <path d="M 90,48 L 112,45"/>
    <!-- o -->
    <path d="M 118,62 C 118,62 116,75 120,80 C 124,85 132,60 134,55 C 136,50 128,48 124,52 C 120,56 128,78 136,72"/>
    <!-- n -->
    <path d="M 136,72 C 136,72 134,82 138,78 C 142,68 148,52 152,48 C 156,44 158,68 160,78 C 162,82 166,74 168,70"/>
  </g>
</svg>