<svg xmlns="http://www.w3.org/2000/svg" viewBox="0 0 320 100" width="320" height="100">
  <g fill="none" stroke="#000000" stroke-width="1.8" stroke-linecap="round" stroke-linejoin="round">
    <!-- M with swooping start -->
    <path d="M 18,78 C 14,76 12,50 16,30 C 18,22 22,72 26,78 C 30,84 32,38 36,28 C 40,20 44,68 48,76"/>
    <!-- á connected -->
    <path d="M 48,76 C 52,72 58,52 66,48 C 72,45 64,62 64,68 C 64,76 74,52 78,46"/>
    <!-- accent mark -->
    <path d="M 62,36 L 68,28"/>
    <!-- r flowing into t -->
    <path d="M 78,46 C 78,50 76,66 78,72 C 80,76 86,52 90,46"/>
    <!-- t stem + continuation -->
    <path d="M 90,46 C 90,40 92,28 94,24 C 96,28 98,58 100,68 C 102,76 108,62 112,56"/>
    <!-- t crossbar -->
    <path d="M 84,48 L 104,46"/>
    <!-- o -->
    <path d="M 112,56 C 110,64 108,74 114,78 C 120,80 126,60 128,54 C 130,48 124,46 120,50 C 116,54 122,74 130,68"/>
    <!-- n with tail -->
    <path d="M 130,68 C 130,72 130,76 134,72 C 138,64 142,52 148,48 C 152,44 154,62 156,72 C 158,78 162,70 166,64"/>
  </g>
</svg>