<svg xmlns="http://www.w3.org/2000/svg" viewBox="0 0 340 110" width="340" height="110">
  <g fill="none" stroke="#000000" stroke-width="2.2" stroke-linecap="round" stroke-linejoin="round">
    <!-- Initial approach loop / hook before M -->
    <path d="M 18,82 C 12,78 8,62 10,48 C 12,36 16,30 20,36 C 22,42 20,70 22,80"/>
    <!-- M — two humps -->
    <path d="M 22,80 C 24,74 26,40 30,28 C 34,16 36,60 40,76 C 42,70 46,38 50,26 C 54,14 58,62 62,78"/>
    <!-- Connection into a-acute -->
    <path d="M 62,78 C 66,72 72,54 78,48 C 84,44 82,62 80,70 C 78,78 86,54 92,46"/>
    <!-- Accent mark over a-acute -->
    <path d="M 73,32 C 76,26 79,21 82,18"/>
    <!-- r — small loop -->
    <path d="M 92,46 C 92,52 90,68 92,76 C 96,70 102,54 108,48"/>
    <!-- t — tall stem -->
    <path d="M 108,48 C 108,38 110,22 112,16 C 114,22 116,58 118,70 C 122,64 128,50 134,46"/>
    <!-- t crossbar -->
    <path d="M 100,42 L 126,40"/>
    <!-- o -->
    <path d="M 134,46 C 132,54 128,72 134,78 C 140,82 150,66 152,58 C 154,50 148,44 142,48 C 136,52 140,76 150,70"/>
    <!-- n + trailing tail -->
    <path d="M 150,70 C 152,74 154,80 158,74 C 164,64 170,50 176,46 C 182,42 184,62 186,74 C 188,82 196,72 204,64 C 208,60 210,72 210,78"/>
  </g>
</svg>
